<svg width="167" height="31" viewBox="0 0 167 31" fill="none" xmlns="http://www.w3.org/2000/svg">
<g clip-path="url(#clip0_0_263)">
<path d="M2.00025 25V7.48H5.55225L7.25625 13.048C7.43225 13.608 7.57625 14.12 7.68825 14.584C7.80025 15.048 7.87225 15.384 7.90425 15.592C7.93625 15.384 8.00825 15.048 8.12025 14.584C8.23225 14.12 8.36825 13.608 8.52825 13.048L10.1603 7.48H13.7123V25H10.9043V19.552C10.9043 18.752 10.9283 17.88 10.9763 16.936C11.0243 15.992 11.0803 15.048 11.1443 14.104C11.2083 13.16 11.2803 12.264 11.3603 11.416C11.4563 10.568 11.5363 9.824 11.6003 9.184L9.24825 17.464H6.51225L4.08825 9.184C4.16825 9.792 4.24825 10.512 4.32825 11.344C4.40825 12.16 4.48025 13.04 4.54425 13.984C4.62425 14.912 4.68825 15.856 4.73625 16.816C4.78425 17.776 4.80825 18.688 4.80825 19.552V25H2.00025ZM17.1589 25V7.48H27.6709V10.096H20.1109V14.656H26.8309V17.248H20.1109V22.384H27.6709V25H17.1589ZM31.2375 25V7.48H36.4455C37.6295 7.48 38.6535 7.704 39.5175 8.152C40.3975 8.6 41.0775 9.232 41.5575 10.048C42.0375 10.864 42.2775 11.832 42.2775 12.952V19.504C42.2775 20.608 42.0375 21.576 41.5575 22.408C41.0775 23.224 40.3975 23.864 39.5175 24.328C38.6535 24.776 37.6295 25 36.4455 25H31.2375ZM34.2375 22.24H36.4455C37.3095 22.24 37.9975 22 38.5095 21.52C39.0215 21.024 39.2775 20.352 39.2775 19.504V12.952C39.2775 12.12 39.0215 11.464 38.5095 10.984C37.9975 10.488 37.3095 10.24 36.4455 10.24H34.2375V22.24ZM45.9881 25V22.36H49.5161V10.12H45.9881V7.48H56.0681V10.12H52.5401V22.36H56.0681V25H45.9881ZM65.4188 25.24C63.7068 25.24 62.3628 24.776 61.3867 23.848C60.4268 22.904 59.9468 21.624 59.9468 20.008V7.48H62.9708V19.984C62.9708 20.816 63.1788 21.464 63.5948 21.928C64.0108 22.392 64.6188 22.624 65.4188 22.624C66.2028 22.624 66.8028 22.392 67.2188 21.928C67.6508 21.464 67.8668 20.816 67.8668 19.984V7.48H70.8907V20.008C70.8907 21.624 70.4108 22.904 69.4508 23.848C68.4908 24.776 67.1468 25.24 65.4188 25.24ZM73.9534 25V7.48H77.5054L79.2094 13.048C79.3854 13.608 79.5294 14.12 79.6414 14.584C79.7534 15.048 79.8254 15.384 79.8574 15.592C79.8894 15.384 79.9614 15.048 80.0734 14.584C80.1854 14.12 80.3214 13.608 80.4814 13.048L82.1134 7.48H85.6654V25H82.8574V19.552C82.8574 18.752 82.8814 17.88 82.9294 16.936C82.9774 15.992 83.0334 15.048 83.0974 14.104C83.1614 13.16 83.2334 12.264 83.3134 11.416C83.4094 10.568 83.4894 9.824 83.5534 9.184L81.2014 17.464H78.4654L76.0414 9.184C76.1214 9.792 76.2014 10.512 76.2814 11.344C76.3614 12.16 76.4334 13.04 76.4974 13.984C76.5774 14.912 76.6414 15.856 76.6894 16.816C76.7374 17.776 76.7614 18.688 76.7614 19.552V25H73.9534Z" fill="#E6E5EA"/>
<rect x="102.5" y="2" width="10" height="28" fill="#F8CD65"/>
<rect x="120.5" y="2" width="10" height="28" fill="#F8CD65"/>
<rect x="138.5" y="2" width="10" height="28" fill="#F8CD65"/>
<rect x="157.5" y="3" width="8" height="26" stroke="#E6E5EA" stroke-width="2"/>
</g>
<defs>
<clipPath id="clip0_0_263">
<rect width="166.5" height="31" fill="white"/>
</clipPath>
</defs>
</svg>
